<svg version="1.2" xmlns="http://www.w3.org/2000/svg" viewBox="0 0 320 77" width="320" height="77">
	<title>Bold_Modern_Minimalist_Gradient_Technology_Business_Logo_1-svg</title>
	<defs>
		<clipPath clipPathUnits="userSpaceOnUse" id="cp1">
			<path d="m298.76 38.26h10.48v10.51h-10.48z"/>
		</clipPath>
		<clipPath clipPathUnits="userSpaceOnUse" id="cp2">
			<path d="m304 48.77c-2.9 0-5.24-2.35-5.24-5.25 0-2.91 2.34-5.26 5.24-5.26 2.9 0 5.24 2.35 5.24 5.26 0 2.9-2.34 5.25-5.24 5.25z"/>
		</clipPath>
		<clipPath clipPathUnits="userSpaceOnUse" id="cp3">
			<path d="m25.12 19.25h62.4v39.86h-62.4z"/>
		</clipPath>
		<clipPath clipPathUnits="userSpaceOnUse" id="cp4">
			<path d="m29.92 4.25h50.88v40.02h-50.88z"/>
		</clipPath>
		<linearGradient id="gradient_s0" x1="0%" y1="0%" x2="100%" y2="0%">
            <stop offset="0%" style="stop-color:#4F3FAD;stop-opacity:1" />
            <stop offset="100%" style="stop-color:#ff00ff;stop-opacity:1" />
        </linearGradient>
	</defs>
	<style>
        .s0 { fill: url(#gradient_s0); } /* Use the linear gradient for the fill of .s0 */
        .s1 { fill: #ffffff; }
    </style>
	<g id="Clip-Path" clip-path="url(#cp1)">
		<g id="Layer">
			<g id="Clip-Path" clip-path="url(#cp2)">
				<g id="Layer">
					<path id="Layer" class="s0" d="m298.8 38.3h10.4v10.5h-10.4z"/>
				</g>
			</g>
		</g>
	</g>
	<g id="Clip-Path" clip-path="url(#cp3)">
		<g id="Layer">
			<path id="Layer" fill-rule="evenodd" class="s1" d="m28.7 19.3h15.9q-0.9 0.7-1.8 1.5-0.8 0.8-1.5 1.8-0.7 0.9-1.3 2-0.5 1-0.9 2.1-0.4 1.1-0.6 2.3-0.2 1.1-0.2 2.3-0.1 1.2 0.1 2.4 0.2 1.1 0.5 2.3 0.4 1.1 0.9 2.2 0.5 1 1.2 2 0.7 0.9 1.5 1.8 0.8 0.8 1.8 1.5 0.9 0.7 2 1.2 1 0.6 2.1 1 1.2 0.3 2.3 0.5 1.2 0.2 2.4 0.2h22.8q1.2 0.1 2.3 0.4 1.1 0.3 2.2 0.8 1 0.5 1.9 1.2 1 0.7 1.8 1.6 0.8 0.8 1.4 1.8 0.6 1 1 2.1 0.5 1.1 0.7 2.2 0.2 1.2 0.2 2.4h-34.3q-0.9 0-1.8-0.1-0.8-0.1-1.7-0.2-0.8-0.1-1.7-0.2-0.9-0.2-1.7-0.4-0.8-0.2-1.6-0.5-0.9-0.3-1.7-0.6-0.8-0.3-1.6-0.7-0.7-0.4-1.5-0.8-0.8-0.4-1.5-0.9-0.7-0.5-1.4-1-0.7-0.5-1.4-1.1-0.6-0.5-1.3-1.1-0.6-0.6-1.2-1.3-0.6-0.6-1.1-1.3-0.5-0.6-1-1.4-0.5-0.7-1-1.4-0.5-0.7-0.9-1.5-0.4-0.8-0.7-1.6-0.4-0.8-0.7-1.6-0.3-0.8-0.6-1.6-0.2-0.8-0.4-1.7-0.2-0.8-0.4-1.7-0.1-0.8-0.2-1.7-0.1-0.9-0.1-1.7-0.1-0.9-0.1-1.8 0.1-0.8 0.1-1.7 0.1-0.9 0.2-1.7 0.1-0.9 0.3-1.7 0.2-0.9 0.4-1.7 0.3-0.9 0.6-1.7 0.2-0.8 0.6-1.6 0.3-0.8 0.7-1.6z"/>
		</g>
	</g>
	<g id="Clip-Path" clip-path="url(#cp4)">
		<g id="Layer">
			<path id="Layer" fill-rule="evenodd" class="s0" d="m53.1 4.3q0.8 0 1.7 0 0.9 0.1 1.7 0.2 0.9 0.1 1.7 0.2 0.9 0.2 1.7 0.4 0.8 0.3 1.7 0.5 0.8 0.3 1.6 0.6 0.8 0.3 1.6 0.7 0.8 0.4 1.5 0.8 0.8 0.4 1.5 0.9 0.7 0.5 1.4 1 0.7 0.5 1.4 1.1 0.7 0.5 1.3 1.1 0.6 0.6 1.2 1.3 0.6 0.6 1.1 1.3 0.6 0.7 1.1 1.4 0.5 0.7 0.9 1.4 0.5 0.7 0.9 1.5 0.4 0.8 0.8 1.6 0.3 0.8 0.6 1.6 0.3 0.8 0.6 1.6 0.2 0.8 0.4 1.7 0.2 0.8 0.4 1.7 0.1 0.8 0.2 1.7 0.1 0.9 0.2 1.7 0 0.9 0 1.8 0 0.8-0.1 1.7-0.1 0.9-0.2 1.7-0.1 0.9-0.3 1.7-0.2 0.9-0.4 1.7-0.3 0.9-0.5 1.7-0.3 0.8-0.7 1.6-0.3 0.8-0.7 1.6h-15.9q0.9-0.7 1.8-1.5 0.8-0.8 1.6-1.8 0.7-0.9 1.2-2 0.6-1 1-2.1 0.3-1.1 0.5-2.3 0.2-1.1 0.3-2.3 0-1.2-0.2-2.4-0.2-1.1-0.5-2.3-0.4-1.1-0.9-2.1-0.5-1.1-1.2-2.1-0.7-0.9-1.5-1.8-0.8-0.8-1.8-1.5-0.9-0.7-2-1.2-1-0.6-2.1-1-1.1-0.3-2.3-0.5-1.2-0.2-2.3-0.2h-22.9q1.9-2.9 4.4-5.2 2.5-2.3 5.5-3.9 2.9-1.7 6.2-2.5 3.4-0.9 6.8-0.8z"/>
		</g>
	</g>
	<g id="Layer">
		<g id="Layer">
			<g id="Layer">
				<path id="Layer" fill-rule="evenodd" class="s1" d="m88.1 36.1q0-2.9 0.9-5.1 0.9-2.2 2.4-3.7 1.6-1.5 3.7-2.3 2.2-0.8 4.6-0.8 2.5 0 4.6 0.8 2.2 0.8 3.7 2.3 1.6 1.5 2.5 3.7 1 2.2 1 5.1 0 3.7-1.4 6.2-1.3 2.5-3.6 4 0.6 0.2 1.3 0.5 0.8 0.3 1.6 0.6 0.8 0.3 1.7 0.6 0.9 0.3 1.7 0.5 0 0.2 0 0.4 0 0.1 0 0.3 0 2.1-1.1 3.1-1.1 0.9-2.8 0.9-1.7 0-3.6-0.9-1.8-1-3.6-2.7l-1.7-1.6h-0.3q-2.5 0-4.6-0.8-2.2-0.8-3.7-2.3-1.6-1.5-2.4-3.7-0.9-2.2-0.9-5.1zm6.6 0q0 3.4 1.4 5.1 1.4 1.6 3.6 1.6 2.4 0 3.7-1.6 1.4-1.7 1.4-5.1 0-3.3-1.4-5-1.3-1.7-3.6-1.7-2.3 0-3.7 1.7-1.4 1.7-1.4 5z"/>
			</g>
		</g>
	</g>
	<g id="Layer">
		<g id="Layer">
			<g id="Layer">
				<path id="Layer" class="s1" d="m135 39.1q0 2-0.6 3.6-0.7 1.7-2 2.9-1.3 1.1-3.2 1.7-1.8 0.7-4.1 0.7-2.4 0-4.2-0.7-1.8-0.6-3.1-1.7-1.3-1.2-2-2.9-0.7-1.6-0.7-3.6v-14.2q0.4 0 1.3-0.2 0.9-0.1 1.7-0.1 0.9 0 1.5 0.1 0.6 0.2 1.1 0.5 0.4 0.3 0.6 0.9 0.3 0.6 0.3 1.6v11.3q0 1.7 0.9 2.7 1 1 2.6 1 1.6 0 2.5-1 1-1 1-2.7v-14.1q0.4 0 1.3-0.2 0.9-0.1 1.7-0.1 0.8 0 1.5 0.1 0.6 0.2 1.1 0.5 0.4 0.3 0.6 0.9 0.2 0.6 0.2 1.6z"/>
			</g>
		</g>
	</g>
	<g id="Layer">
		<g id="Layer">
			<g id="Layer">
				<path id="Layer" class="s1" d="m146.2 47.2q-0.4 0.1-1.3 0.2-0.8 0.2-1.7 0.2-0.8 0-1.5-0.2-0.6-0.1-1.1-0.4-0.4-0.4-0.6-1-0.3-0.6-0.3-1.5v-19.6q0.4 0 1.3-0.2 0.9-0.1 1.7-0.1 0.9 0 1.5 0.1 0.7 0.2 1.1 0.5 0.5 0.3 0.7 0.9 0.2 0.6 0.2 1.6z"/>
			</g>
		</g>
	</g>
	<g id="Layer">
		<g id="Layer">
			<g id="Layer">
				<path id="Layer" class="s1" d="m162.4 29.4q-2.8 0-4.3 1.8-1.6 1.7-1.6 4.9 0 3.2 1.7 5 1.7 1.7 4.6 1.7 1.5 0 2.5-0.4 1.1-0.4 2-0.9 0.7 0.5 1 1.2 0.4 0.7 0.4 1.7 0 1.5-1.7 2.6-1.7 1-5.1 1-2.5 0-4.7-0.7-2.2-0.7-3.8-2.1-1.6-1.5-2.6-3.7-0.9-2.3-0.9-5.4 0-2.9 0.9-5.1 0.9-2.2 2.5-3.7 1.5-1.5 3.6-2.3 2.2-0.8 4.6-0.8 3.3 0 5.2 1.1 1.9 1.2 1.9 2.9 0 1-0.5 1.7-0.5 0.7-1.1 1.1-1-0.7-2.1-1.1-1-0.5-2.5-0.5z"/>
			</g>
		</g>
	</g>
	<g id="Layer">
		<g id="Layer">
			<g id="Layer">
				<path id="Layer" class="s1" d="m178.6 39v8.2q-0.4 0.1-1.3 0.2-0.9 0.2-1.7 0.2-0.9 0-1.5-0.2-0.7-0.1-1.1-0.4-0.5-0.4-0.7-1-0.2-0.6-0.2-1.5v-19.6q0.4 0 1.3-0.2 0.9-0.1 1.7-0.1 0.8 0 1.5 0.1 0.6 0.2 1.1 0.5 0.4 0.3 0.6 0.9 0.3 0.6 0.3 1.6v5.9l7.6-8.9q2.5 0 3.6 1 1.1 0.9 1.1 2.2 0 1-0.4 1.8-0.5 0.9-1.6 1.9l-4.6 4.7q0.9 1 1.9 2.1 1 1.1 2 2.2 1 1 1.9 2 0.9 1 1.6 1.7 0 0.8-0.3 1.4-0.3 0.6-0.8 1.1-0.5 0.4-1.1 0.6-0.7 0.3-1.4 0.3-1.5 0-2.4-0.8-1-0.7-1.9-1.8z"/>
			</g>
		</g>
	</g>
	<g id="Layer">
		<g id="Layer">
			<g id="Layer">
				<path id="Layer" class="s1" d="m201.2 38.5q-1.7-0.6-3-1.2-1.3-0.6-2.3-1.4-0.9-0.8-1.5-1.9-0.5-1.1-0.5-2.8 0-3.1 2.4-5 2.4-1.9 6.8-1.9 1.6 0 2.9 0.2 1.4 0.3 2.4 0.7 1 0.5 1.5 1.2 0.6 0.7 0.6 1.7 0 0.9-0.5 1.6-0.4 0.7-1 1.2-0.9-0.5-2.2-0.9-1.4-0.4-3-0.4-1.7 0-2.5 0.5-0.7 0.4-0.7 1.1 0 0.6 0.4 0.9 0.5 0.4 1.5 0.7l2 0.6q3.4 1.1 5.3 2.9 1.9 1.7 1.9 4.6 0 3.2-2.5 5.1-2.5 2-7.3 2-1.7 0-3.2-0.3-1.4-0.3-2.5-0.8-1.1-0.6-1.7-1.4-0.6-0.8-0.6-1.8 0-1.1 0.6-1.8 0.6-0.8 1.4-1.2 1 0.8 2.5 1.4 1.5 0.6 3.3 0.6 1.8 0 2.5-0.5 0.8-0.6 0.8-1.3 0-0.8-0.6-1.2-0.6-0.4-1.7-0.7z"/>
			</g>
		</g>
	</g>
	<g id="Layer">
		<g id="Layer">
			<g id="Layer">
				<path id="Layer" class="s1" d="m218.6 47.5q-1.6 0-2.5-0.9-0.9-1-0.9-2.6v-19.1q0.4-0.1 1.2-0.2 0.9-0.1 1.7-0.1 0.9 0 1.5 0.1 0.7 0.1 1.1 0.5 0.5 0.3 0.7 0.9 0.2 0.6 0.2 1.5v14.7h8.5q0.2 0.4 0.4 1.1 0.3 0.6 0.3 1.4 0 1.5-0.7 2.1-0.6 0.6-1.6 0.6z"/>
			</g>
		</g>
	</g>
	<g id="Layer">
		<g id="Layer">
			<g id="Layer">
				<path id="Layer" class="s1" d="m234.1 28.4q0-1.6 0.9-2.5 1-1 2.5-1h12.2q0.3 0.4 0.5 1.1 0.2 0.7 0.2 1.4 0 1.4-0.6 2-0.6 0.6-1.6 0.6h-7.8v3.4h8.3q0.3 0.5 0.5 1.1 0.2 0.7 0.2 1.4 0 1.4-0.6 2-0.6 0.6-1.6 0.6h-6.8v3.9h9.5q0.2 0.4 0.4 1 0.2 0.7 0.2 1.5 0 1.4-0.6 2-0.6 0.6-1.6 0.6h-10.8q-1.5 0-2.5-0.9-0.9-1-0.9-2.6z"/>
			</g>
		</g>
	</g>
	<g id="Layer">
		<g id="Layer">
			<g id="Layer">
				<path id="Layer" class="s1" d="m254.3 28.4q0-1.6 1-2.5 0.9-1 2.5-1h12.2q0.2 0.4 0.4 1.1 0.2 0.7 0.2 1.4 0 1.4-0.6 2-0.6 0.6-1.6 0.6h-7.8v3.4h8.3q0.3 0.5 0.5 1.1 0.2 0.7 0.2 1.4 0 1.4-0.6 2-0.6 0.6-1.6 0.6h-6.8v3.9h9.5q0.3 0.4 0.5 1 0.2 0.7 0.2 1.5 0 1.4-0.6 2-0.6 0.6-1.6 0.6h-10.8q-1.6 0-2.5-0.9-1-1-1-2.6z"/>
			</g>
		</g>
	</g>
	<g id="Layer">
		<g id="Layer">
			<g id="Layer">
				<path id="Layer" class="s1" d="m281.1 39v8.2q-0.4 0.1-1.3 0.2-0.9 0.2-1.7 0.2-0.9 0-1.5-0.2-0.7-0.1-1.1-0.4-0.5-0.4-0.7-1-0.2-0.6-0.2-1.5v-19.6q0.4 0 1.3-0.2 0.9-0.1 1.7-0.1 0.8 0 1.5 0.1 0.6 0.2 1.1 0.5 0.4 0.3 0.6 0.9 0.3 0.6 0.3 1.6v5.9l7.6-8.9q2.5 0 3.6 1 1.1 0.9 1.1 2.2 0 1-0.5 1.8-0.4 0.9-1.5 1.9l-4.6 4.7q0.9 1 1.9 2.1 1 1.1 2 2.2 1 1 1.9 2 0.9 1 1.6 1.7 0 0.8-0.3 1.4-0.3 0.6-0.8 1.1-0.5 0.4-1.2 0.6-0.6 0.3-1.3 0.3-1.5 0-2.5-0.8-0.9-0.7-1.8-1.8z"/>
			</g>
		</g>
	</g>
</svg>